<svg version="1.1" xmlns="http://www.w3.org/2000/svg" xmlns:xlink="http://www.w3.org/1999/xlink" width="96.13379" height="75.28606" viewBox="0,0,96.13379,75.28606"><g transform="translate(-191.86761,-142.87884)"><g data-paper-data="{&quot;isPaintingLayer&quot;:true}" fill-rule="nonzero" stroke-linejoin="miter" stroke-miterlimit="10" stroke-dasharray="" stroke-dashoffset="0" style="mix-blend-mode: normal"><path d="M286.50141,144.92987l-88.92765,-0.55104" fill="none" stroke="#6e6e6e" stroke-width="3" stroke-linecap="round"/><path d="M200.01603,159.63856l83.95269,0.52022" fill="none" stroke="#6e6e6e" stroke-width="3" stroke-linecap="round"/><path d="M277.94216,194.4868l-84.57455,-0.52407" fill="none" stroke="#6e6e6e" stroke-width="3" stroke-linecap="round"/><path d="M280.67345,206.27331l-77.73396,-0.48168" fill="none" stroke="#6e6e6e" stroke-width="3" stroke-linecap="round"/><path d="M207.22893,216.24873l67.16215,0.41617" fill="none" stroke="#6e6e6e" stroke-width="3" stroke-linecap="round"/><g stroke-linecap="butt"><path d="M285.41413,181.57689c0,3.23361 -20.1741,5.85496 -45.06012,5.85496c-24.88602,0 -45.06012,-2.62135 -45.06012,-5.85496c0,-3.23361 20.1741,-5.85497 45.06013,-5.85497c24.88602,0 45.06012,2.62136 45.06012,5.85497z" fill="#ffab19" stroke="none" stroke-width="0"/><path d="M195.19667,181.6851v-8.5411l90.24274,-0.11326l-0.05228,8.53926z" fill="#ffab19" stroke="none" stroke-width="0"/><path d="M285.41413,173.11973c0,3.2336 -20.1741,5.85497 -45.06012,5.85497c-24.88602,0 -45.06012,-2.62136 -45.06012,-5.85497c0,-3.2336 20.1741,-5.85497 45.06012,-5.85497c24.88602,0 45.06012,2.62135 45.06012,5.85497z" fill="#ffddae" stroke="#ffab19" stroke-width="0.5"/></g></g></g></svg>