<svg version="1.1" xmlns="http://www.w3.org/2000/svg" xmlns:xlink="http://www.w3.org/1999/xlink" width="422.10757" height="361.71934" viewBox="0,0,422.10757,361.71934"><g transform="translate(0.04907,0.46433)"><g data-paper-data="{&quot;isPaintingLayer&quot;:true}" fill-rule="nonzero" stroke-linecap="butt" stroke-linejoin="miter" stroke-miterlimit="10" stroke-dasharray="" stroke-dashoffset="0" style="mix-blend-mode: normal"><path d="" fill="#88ff9a" stroke="none" stroke-width="0.5"/><path d="" fill="#88ff9a" stroke="none" stroke-width="0.5"/><path d="M406.34682,324.51202c0,20.29261 -86.57359,36.743 -193.36759,36.743c-106.794,0 -193.36759,-16.45035 -193.36759,-36.743c0,-20.29261 86.57359,-36.74304 193.36765,-36.74304c106.794,0 193.36759,16.45043 193.36759,36.74304z" fill="#ffab19" stroke="none" stroke-width="0"/><path d="M19.19444,325.19106v-53.59994l387.26089,-0.71076l-0.22435,53.58838z" fill="#ffab19" stroke="none" stroke-width="0"/><path d="M406.34682,271.43877c0,20.29256 -86.57359,36.74304 -193.36759,36.74304c-106.794,0 -193.36759,-16.45043 -193.36759,-36.74304c0,-20.29256 86.57359,-36.74304 193.36759,-36.74304c106.794,0 193.36759,16.45035 193.36759,36.74304z" fill="#ffddae" stroke="#ffab19" stroke-width="0.5"/><path d="M390.04216,217.1714c0,18.71935 -79.86186,33.89448 -178.37636,33.89448c-98.51456,0 -178.37633,-15.17509 -178.37633,-33.89448c0,-18.71935 79.86177,-33.89439 178.37629,-33.89439c98.5145,0 178.37633,15.17504 178.37633,33.89439z" fill="#d68014" stroke="none" stroke-width="0"/><path d="M389.93517,217.21143l0.20696,49.43382l-357.23754,-0.65569v-49.44453z" fill="#d68014" stroke="none" stroke-width="0"/><path d="M211.66578,300.02447c-98.5145,0 -178.37629,-15.17518 -178.37629,-33.89448c0,-18.71935 79.86177,-33.89448 178.37629,-33.89448c98.5145,0 178.37629,15.17518 178.37629,33.89448c0,18.71941 -79.86177,33.89448 -178.37629,33.89448z" fill="#d68014" stroke="#d68014" stroke-width="0.5"/><path d="M390.13857,215.37898c0,17.3281 -79.86186,31.3754 -178.37636,31.3754c-98.51456,0 -178.37633,-14.04728 -178.37633,-31.3754c0,-17.3281 79.86177,-31.37534 178.37629,-31.37534c98.5145,0 178.37636,14.04723 178.37636,31.37534z" fill="#c07111" stroke="none" stroke-width="0"/><path d="M49.0275,187.16588c31.57938,-3.01383 63.07964,-9.33015 94.77318,-5.7825c54.8657,10.78657 110.72901,-4.07399 165.85559,4.3711c16.34273,3.36651 100.37868,24.44553 66.23515,34.76214c-1.00416,0.30288 2.87206,48.653 -6.73361,50.15988c-6.54771,1.02717 -69.60766,-33.34837 -69.79257,-32.35384c-2.80979,15.11227 -23.12333,50.6718 -30.94618,57.93236c-9.55733,8.87033 -51.9226,-52.97773 -60.56682,-41.69201c-4.84653,6.32754 -25.20397,43.03203 -34.25373,43.7708c-1.37587,0.11234 -39.56077,-23.26017 -47.90106,-32.12355c-33.20753,-29.29996 -90.59294,-77.71557 -76.66983,-79.04435z" fill="#fff100" stroke="none" stroke-width="0.5"/><path d="M9.6874,218.68296c-3.93836,-5.57915 -5.46607,-12.30696 -7.35515,-18.69606c-1.29437,-4.37772 -2.31143,-8.92429 -2.15033,-13.45233c0.21668,-6.0913 -1.84021,-14.05224 3.27084,-18.04435c14.51565,-11.33792 37.64695,3.74722 52.37295,5.54534c18.92992,2.31148 38.61599,-9.35763 51.25627,-20.64761c12.07569,-3.273 19.44915,-6.92905 32.12761,-4.62187c24.64713,4.48522 37.89094,20.10255 63.69732,20.1346c12.80575,0.01585 21.75504,1.65096 33.3473,-2.65115c13.3073,-4.93859 12.12389,-9.03038 26.82686,-13.71406c30.58317,-9.74245 70.36932,-5.51412 102.22839,-7.23877c9.614,-0.52044 28.61686,-5.0882 37.16484,-0.09163c11.85061,6.92706 14.07791,31.045 16.19491,42.44099c0.10916,6.24253 4.01832,13.44356 0.32751,18.72761c-3.73562,5.3482 -12.30644,6.30215 -19.04154,8.06503c-15.83589,4.14505 -27.58334,-0.05503 -42.66237,8.67686c-20.51017,11.87686 -24.36691,48.50177 -51.93039,47.24639c-12.83565,-0.58459 -29.042,-13.76552 -41.793,-17.29837c-29.74069,-8.24003 -63.95765,-8.79252 -94.60959,-4.7843c-14.56234,2.14521 -30.02918,3.5534 -44.50536,-0.34225c-12.73502,-3.42705 -20.32938,-8.08814 -33.90394,-9.78909l-1.92615,-0.42146c-29.43162,0.76756 -64.00411,2.11051 -78.93698,-19.04354z" data-paper-data="{&quot;index&quot;:null}" fill="#88ff9a" stroke="none" stroke-width="0.5"/><path d="M11.16716,217.42399c-3.93836,-5.57915 -5.46607,-12.30696 -7.35512,-18.69606c-1.25199,-4.23441 -2.24457,-8.62684 -2.1624,-13.00773c10.39239,11.16028 24.88913,17.25672 33.97012,13.82274c8.83121,-3.33951 17.70033,-14.13137 27.01596,-11.33134c13.11181,3.94091 22.90204,17.6798 37.35387,16.36753c4.23202,-0.38423 9.59528,-12.87721 12.03432,-6.97953c3.11344,7.52824 7.39876,16.78646 12.80751,16.96185c12.7411,0.41307 27.84804,-14.22951 40.00146,-10.36576c7.50596,2.38626 14.15003,4.08331 22.02828,2.47607c9.82096,-2.0036 16.73661,-9.98039 27.64365,-9.57082c6.1135,0.22961 12.39778,6.11262 18.66392,6.21914c9.98706,0.16962 20.66081,-6.41215 29.96241,-0.22233c13.67488,9.10016 27.66562,18.62682 42.54616,17.84887c9.06242,-0.47372 49.67263,-29.29065 60.46018,-34.68142c16.30767,-8.14936 32.66736,-7.17055 50.14375,-11.70809c0.81167,4.49906 3.27841,8.65741 3.86773,11.82996c0.10916,6.24253 4.01832,13.44352 0.32751,18.72757c-3.73562,5.3482 -12.30644,6.3022 -19.04154,8.06503c-15.83589,4.14505 -27.58334,-0.05503 -42.66237,8.67686c-20.51017,11.87686 -24.36691,48.50182 -51.93039,47.24639c-12.83565,-0.58459 -29.042,-13.76557 -41.793,-17.29837c-29.74069,-8.24003 -63.95765,-8.79252 -94.60959,-4.7843c-14.56234,2.14521 -30.02918,3.5534 -44.50536,-0.34225c-12.73502,-3.42705 -20.32938,-8.08814 -33.90394,-9.78909l-1.92615,-0.42146c-29.43162,0.76756 -64.00417,2.11051 -78.93704,-19.04354z" data-paper-data="{&quot;index&quot;:null}" fill="#acffb9" stroke="none" stroke-width="0.5"/><path d="M277.86485,174.69409c0,6.73361 -29.00893,12.19224 -64.79315,12.19224c-35.78425,0 -64.79312,-5.45863 -64.79312,-12.19224c0,-6.73361 29.00886,-12.19237 64.79312,-12.19237c35.78425,0 64.79315,5.45872 64.79315,12.19237z" fill="#b50ccc" stroke="none" stroke-width="0"/><path d="M148.13878,174.91944v-17.78584l129.76244,-0.23582l-0.07519,17.78204z" fill="#b50ccc" stroke="none" stroke-width="0"/><path d="M277.86485,157.08298c0,6.73361 -29.00887,12.19229 -64.79312,12.19229c-35.78425,0 -64.79312,-5.45872 -64.79312,-12.19229c0,-6.73361 29.00887,-12.19237 64.79312,-12.19237c35.78425,0 64.79312,5.45872 64.79312,12.19237z" fill="#e4dae5" stroke="none" stroke-width="0"/><path d="M252.28342,156.9025c0,2.79167 -18.75295,5.05473 -41.88585,5.05473c-23.13293,0 -41.88585,-2.26308 -41.88585,-5.05473c0,-2.79167 18.75295,-5.05473 41.88585,-5.05473c23.13293,0 41.88585,2.26308 41.88585,5.05473z" fill="#8b099d" stroke="none" stroke-width="0"/><path d="M191.41005,188.12746c0,6.73361 -29.00893,12.19224 -64.79315,12.19224c-35.78425,0 -64.79312,-5.45863 -64.79312,-12.19224c0,-6.73361 29.00886,-12.19237 64.79312,-12.19237c35.78425,0 64.79315,5.45872 64.79315,12.19237z" fill="#b50ccc" stroke="none" stroke-width="0"/><path d="M61.68394,188.35281v-17.78584l129.76244,-0.23582l-0.07519,17.78204z" fill="#b50ccc" stroke="none" stroke-width="0"/><path d="M191.41005,170.51635c0,6.73361 -29.00887,12.19229 -64.79312,12.19229c-35.78425,0 -64.79312,-5.45872 -64.79312,-12.19229c0,-6.73361 29.00887,-12.19237 64.79312,-12.19237c35.78425,0 64.79312,5.45872 64.79312,12.19237z" fill="#e4dae5" stroke="none" stroke-width="0"/><path d="M165.82855,170.33589c0,2.79167 -18.75295,5.05473 -41.88585,5.05473c-23.13293,0 -41.88585,-2.26308 -41.88585,-5.05473c0,-2.79167 18.75295,-5.05473 41.88585,-5.05473c23.13293,0 41.88585,2.26308 41.88585,5.05473z" fill="#8b099d" stroke="none" stroke-width="0"/><path d="M357.98468,188.64421c0,6.73361 -29.00893,12.19224 -64.79315,12.19224c-35.78425,0 -64.79312,-5.45863 -64.79312,-12.19224c0,-6.73361 29.00886,-12.19237 64.79312,-12.19237c35.78425,0 64.79315,5.45872 64.79315,12.19237z" fill="#b50ccc" stroke="none" stroke-width="0"/><path d="M228.25858,188.86947v-17.78584l129.76244,-0.23582l-0.07519,17.78204z" fill="#b50ccc" stroke="none" stroke-width="0"/><path d="M357.98468,171.03312c0,6.73361 -29.00887,12.19229 -64.79312,12.19229c-35.78425,0 -64.79312,-5.45872 -64.79312,-12.19229c0,-6.73361 29.00887,-12.19237 64.79312,-12.19237c35.78425,0 64.79312,5.45872 64.79312,12.19237z" fill="#e4dae5" stroke="none" stroke-width="0"/><path d="M332.40319,170.85257c0,2.79167 -18.75295,5.05473 -41.88585,5.05473c-23.13293,0 -41.88585,-2.26308 -41.88585,-5.05473c0,-2.79167 18.75295,-5.05473 41.88585,-5.05473c23.13293,0 41.88585,2.26308 41.88585,5.05473z" fill="#8b099d" stroke="none" stroke-width="0"/><path d="M412.71624,147.61114c0,20.29261 -86.57359,36.743 -193.36759,36.743c-106.794,0 -193.36759,-16.45035 -193.36759,-36.743c0,-20.29261 86.57359,-36.74304 193.36765,-36.74304c106.794,0 193.36759,16.45043 193.36759,36.74304z" fill="#ea9d17" stroke="none" stroke-width="0"/><path d="M25.56383,148.29013v-53.59994l387.26089,-0.71076l-0.22435,53.58838z" fill="#ea9d17" stroke="none" stroke-width="0"/><path d="M412.71624,94.53789c0,20.29256 -86.57359,36.74304 -193.36759,36.74304c-106.794,0 -193.36759,-16.45043 -193.36759,-36.74304c0,-20.29256 84.26415,-95.00222 191.05815,-95.00222c106.794,0 195.6771,74.70952 195.6771,95.00222z" fill="#ffab19" stroke="none" stroke-width="0"/><path d="M82.6999,71.49069c-1.80881,5.80793 -6.88371,8.52907 -9.74846,6.62105c-2.86471,-1.90803 -4.77124,-8.44629 -2.96239,-14.25424c1.80881,-5.80793 8.70925,-14.39056 11.57396,-12.48252c2.86471,1.90803 2.94569,14.30778 1.13691,20.11571z" fill="#ffffff" stroke="none" stroke-width="0"/><path d="M122.05506,69.09492c-1.80881,5.80793 -6.88376,8.52907 -9.74846,6.62105c-2.86471,-1.90803 -4.77124,-8.44629 -2.96242,-14.25424c1.80884,-5.80793 8.70925,-14.39056 11.57401,-12.48252c2.86477,1.90803 2.94575,14.30778 1.13691,20.11571z" fill="#ffffff" stroke="none" stroke-width="0"/><path d="M318.45163,51.64948c2.97775,-1.90803 10.15047,6.6746 12.03068,12.48252c1.88019,5.80793 -0.10155,12.34625 -3.07931,14.25424c-2.97775,1.90803 -8.25296,-0.81313 -10.13315,-6.62105c-1.88019,-5.80793 -1.79601,-18.20768 1.18179,-20.11571z" data-paper-data="{&quot;index&quot;:null}" fill="#ffffff" stroke="none" stroke-width="0"/><path d="M155.74818,55.21497c-2.86477,1.90803 -9.76518,-6.6746 -11.57401,-12.48252c-1.80884,-5.80793 0.09766,-12.34625 2.96239,-14.25424c2.86471,-1.90803 7.9397,0.81313 9.74846,6.62105c1.80884,5.80793 1.72785,18.20768 -1.13691,20.11571z" data-paper-data="{&quot;index&quot;:null}" fill="#ffffff" stroke="none" stroke-width="0"/><path d="M223.37677,39.11059c-1.80884,5.80793 -6.88376,8.52907 -9.74846,6.62105c-2.86477,-1.90803 -4.77124,-8.44629 -2.96239,-14.25424c1.80881,-5.80793 8.70925,-14.39056 11.57396,-12.48252c2.86477,1.90803 2.94575,14.30778 1.13691,20.11571z" fill="#ffffff" stroke="none" stroke-width="0"/><path d="M174.29731,14.06611c2.86477,-1.90803 9.76518,6.6746 11.57401,12.48252c1.80881,5.80793 -0.09766,12.34625 -2.96242,14.25424c-2.86471,1.90803 -7.9397,-0.81313 -9.74846,-6.62105c-1.80884,-5.80793 -1.72785,-18.20768 1.13691,-20.11571z" data-paper-data="{&quot;index&quot;:null}" fill="#ffffff" stroke="none" stroke-width="0"/><path d="M264.57572,77.57941c-2.86471,1.90803 -9.76518,-6.6746 -11.57396,-12.48252c-1.80884,-5.80793 0.09766,-12.34625 2.96239,-14.25424c2.86477,-1.90803 7.9397,0.81313 9.74846,6.62105c1.80881,5.80793 1.72782,18.20768 -1.13691,20.11571z" data-paper-data="{&quot;index&quot;:null}" fill="#ffffff" stroke="none" stroke-width="0"/><path d="M165.24707,63.31205c2.86477,-1.90803 9.76518,6.6746 11.57401,12.48252c1.80881,5.80793 -0.09766,12.34625 -2.96242,14.25424c-2.86471,1.90803 -7.9397,-0.81313 -9.74846,-6.62105c-1.80884,-5.80793 -1.72785,-18.20768 1.13691,-20.11571z" data-paper-data="{&quot;index&quot;:null}" fill="#ffffff" stroke="none" stroke-width="0"/><path d="M220.88312,93.05191c-2.86471,1.90803 -9.76518,-6.6746 -11.57401,-12.48252c-1.80881,-5.80793 0.09766,-12.34625 2.96239,-14.25424c2.86477,-1.90803 7.9397,0.81313 9.74846,6.62105c1.80881,5.80793 1.72782,18.20768 -1.13691,20.11571z" data-paper-data="{&quot;index&quot;:null}" fill="#ffffff" stroke="none" stroke-width="0"/><path d="M241.6479,13.77073c2.86471,-1.90803 9.76518,6.6746 11.57396,12.48252c1.80884,5.80793 -0.09766,12.34625 -2.96242,14.25424c-2.86471,1.90803 -7.93964,-0.81313 -9.74846,-6.62105c-1.80884,-5.80793 -1.72782,-18.20768 1.13691,-20.11571z" data-paper-data="{&quot;index&quot;:null}" fill="#ffffff" stroke="none" stroke-width="0"/><path d="M281.69493,41.82191c-2.86477,1.90803 -9.76518,-6.6746 -11.57401,-12.48252c-1.80881,-5.80793 0.09766,-12.34625 2.96242,-14.25424c2.86471,-1.90803 7.9397,0.81313 9.74846,6.62105c1.80884,5.80793 1.72785,18.20768 -1.13691,20.11571z" data-paper-data="{&quot;index&quot;:null}" fill="#ffffff" stroke="none" stroke-width="0"/><path d="M360.87094,78.06638c-1.80884,5.80793 -6.88376,8.52907 -9.74846,6.62105c-2.86477,-1.90803 -4.77124,-8.44629 -2.96239,-14.25424c1.80881,-5.80793 8.70925,-14.39056 11.57396,-12.48252c2.86477,1.90803 2.94575,14.30778 1.13691,20.11571z" fill="#ffffff" stroke="none" stroke-width="0"/><path d="M298.03117,99.312c-1.80881,5.80793 -6.88376,8.52907 -9.74846,6.62105c-2.86471,-1.90803 -4.77124,-8.44629 -2.96242,-14.25424c1.80884,-5.80793 8.70925,-14.39056 11.57401,-12.48252c2.86471,1.90803 2.94569,14.30778 1.13691,20.11571z" fill="#ffffff" stroke="none" stroke-width="0"/><path d="M304.47614,57.23252c-1.80881,5.80793 -6.88376,8.52907 -9.74846,6.62105c-2.86471,-1.90803 -4.77124,-8.44629 -2.96239,-14.25424c1.80881,-5.80793 8.70925,-14.39056 11.57401,-12.48252c2.86471,1.90803 2.94569,14.30778 1.13691,20.11571z" data-paper-data="{&quot;index&quot;:null}" fill="#ffffff" stroke="none" stroke-width="0"/></g></g></svg>