<svg version="1.1" xmlns="http://www.w3.org/2000/svg" xmlns:xlink="http://www.w3.org/1999/xlink" width="96.13381" height="75.28607" viewBox="0,0,96.13381,75.28607"><g transform="translate(-191.86762,-142.87884)"><g data-paper-data="{&quot;isPaintingLayer&quot;:true}" fill-rule="nonzero" stroke-linejoin="miter" stroke-miterlimit="10" stroke-dasharray="" stroke-dashoffset="0" style="mix-blend-mode: normal"><path d="M286.50144,144.92988l-88.92765,-0.55104" fill="none" stroke="#6e6e6e" stroke-width="3" stroke-linecap="round"/><path d="M200.01606,159.63857l83.95269,0.52022" fill="none" stroke="#6e6e6e" stroke-width="3" stroke-linecap="round"/><path d="M277.94217,194.48681l-84.57455,-0.52407" fill="none" stroke="#6e6e6e" stroke-width="3" stroke-linecap="round"/><path d="M280.67346,206.27332l-77.73396,-0.48168" fill="none" stroke="#6e6e6e" stroke-width="3" stroke-linecap="round"/><path d="M274.3911,216.66491l-67.16215,-0.41617" fill="none" stroke="#6e6e6e" stroke-width="3" stroke-linecap="round"/><path d="M255.06381,162.70837l21.25536,11.47663v13.86759l-40.38518,-4.14434l-0.38647,-15.14277z" fill="#fff100" stroke="#f3dd19" stroke-width="0.5" stroke-linecap="round"/><path d="M235.46586,168.69722l40.7327,5.55984" fill="none" stroke="#f3dd19" stroke-width="0.5" stroke-linecap="round"/><path d="M250.69397,175.40529c0,1.90245 -2.22813,3.44468 -4.97668,3.44468c-2.74855,0 -4.97668,-1.54224 -4.97668,-3.44468c0,-1.90245 2.22813,-3.44468 4.97668,-3.44468c2.74855,0 4.97668,1.54224 4.97668,3.44468z" fill="#f3dd19" stroke="#f3dd19" stroke-width="0.5" stroke-linecap="butt"/><path d="M265.1069,181.00962c0,1.90245 -2.22813,3.44469 -4.97668,3.44469c-2.74855,0 -4.97668,-1.54224 -4.97668,-3.44469c0,-1.90245 2.22814,-3.44468 4.97668,-3.44468c2.74855,0 4.97668,1.54223 4.97668,3.44468z" fill="#f3dd19" stroke="#f3dd19" stroke-width="0.5" stroke-linecap="butt"/><path d="M258.27437,167.44348c0,1.34234 -1.57214,2.43052 -3.51147,2.43052c-1.93933,0 -3.51148,-1.08818 -3.51148,-2.43052c0,-1.34234 1.57214,-2.43052 3.51148,-2.43052c1.93933,0 3.51147,1.08818 3.51147,2.43052z" fill="#f3dd19" stroke="#f3dd19" stroke-width="0.5" stroke-linecap="butt"/><path d="M225.47522,165.08495l21.25536,11.47663v13.86759l-40.38518,-4.14434l-0.38647,-15.14277z" fill="#fff100" stroke="#f3dd19" stroke-width="0.5" stroke-linecap="round"/><path d="M246.60998,176.63364l-40.7327,-5.55984" fill="none" stroke="#f3dd19" stroke-width="0.5" stroke-linecap="round"/><path d="M221.10538,177.78187c0,1.90245 -2.22813,3.44468 -4.97668,3.44468c-2.74855,0 -4.97668,-1.54224 -4.97668,-3.44468c0,-1.90245 2.22814,-3.44468 4.97668,-3.44468c2.74855,0 4.97668,1.54224 4.97668,3.44468z" fill="#f3dd19" stroke="#f3dd19" stroke-width="0.5" stroke-linecap="butt"/><path d="M235.51832,183.3862c0,1.90245 -2.22813,3.44469 -4.97668,3.44469c-2.74855,0 -4.97669,-1.54224 -4.97669,-3.44469c0,-1.90245 2.22814,-3.44468 4.97669,-3.44468c2.74855,0 4.97668,1.54223 4.97668,3.44468z" fill="#f3dd19" stroke="#f3dd19" stroke-width="0.5" stroke-linecap="butt"/><path d="M228.68578,169.82006c0,1.34234 -1.57213,2.43052 -3.51146,2.43052c-1.93933,0 -3.51148,-1.08818 -3.51148,-2.43052c0,-1.34234 1.57214,-2.43052 3.51148,-2.43052c1.93933,0 3.51146,1.08818 3.51146,2.43052z" fill="#f3dd19" stroke="#f3dd19" stroke-width="0.5" stroke-linecap="butt"/></g></g></svg>