<svg version="1.1" xmlns="http://www.w3.org/2000/svg" xmlns:xlink="http://www.w3.org/1999/xlink" width="98.36301" height="75.28607" viewBox="0,0,98.36301,75.28607"><g transform="translate(-190.81849,-142.87884)"><g data-paper-data="{&quot;isPaintingLayer&quot;:true}" fill-rule="nonzero" stroke-linejoin="miter" stroke-miterlimit="10" stroke-dasharray="" stroke-dashoffset="0" style="mix-blend-mode: normal"><path d="M286.50144,144.92988l-88.92765,-0.55104" fill="none" stroke="#6e6e6e" stroke-width="3" stroke-linecap="round"/><path d="M200.01606,159.63857l83.95269,0.52022" fill="none" stroke="#6e6e6e" stroke-width="3" stroke-linecap="round"/><path d="M277.94217,194.48681l-84.57455,-0.52407" fill="none" stroke="#6e6e6e" stroke-width="3" stroke-linecap="round"/><path d="M280.67346,206.27332l-77.73396,-0.48168" fill="none" stroke="#6e6e6e" stroke-width="3" stroke-linecap="round"/><path d="M274.3911,216.66491l-67.16215,-0.41617" fill="none" stroke="#6e6e6e" stroke-width="3" stroke-linecap="round"/><g data-paper-data="{&quot;index&quot;:null}" stroke="none" stroke-width="0.5" stroke-linecap="butt"><path d="M193.08737,181.91877c-0.91775,-0.88903 -1.27375,-1.9611 -1.71396,-2.9792c-0.30163,-0.69759 -0.53863,-1.42208 -0.50109,-2.14362c0.05049,-0.97064 -0.42882,-2.23921 0.7622,-2.87535c3.38256,-1.80669 8.7728,0.59712 12.20438,0.88365c4.41121,0.36833 8.99862,-1.49113 11.94416,-3.29018c2.81398,-0.52155 4.5322,-1.10414 7.48664,-0.73649c5.74348,0.71472 8.82966,3.20332 14.84328,3.20843c2.9841,0.00253 5.06954,0.26308 7.77086,-0.42246c3.10098,-0.78696 2.82521,-1.43898 6.25142,-2.18532c7.12674,-1.55245 16.39804,-0.87867 23.82211,-1.15349c2.24033,-0.08293 6.66854,-0.8108 8.66046,-0.0146c2.76153,1.10382 3.28055,4.94699 3.77387,6.76293c0.02544,0.99474 0.93638,2.14222 0.07632,2.98423c-0.8705,0.85223 -2.86775,1.00424 -4.43722,1.28516c-3.69021,0.66051 -6.4277,-0.00877 -9.94154,1.38265c-4.77945,1.89257 -5.67818,7.72871 -12.10125,7.52867c-2.99107,-0.09315 -6.76761,-2.19352 -9.73895,-2.75648c-6.93042,-1.31304 -14.90394,-1.40108 -22.04671,-0.76237c-3.39344,0.34184 -6.99765,0.56623 -10.37101,-0.05454c-2.96762,-0.5461 -4.73732,-1.28884 -7.90058,-1.55988l-0.44885,-0.06716c-6.8584,0.12231 -14.91477,0.33631 -18.39455,-3.03457z" data-paper-data="{&quot;index&quot;:null}" fill="#88ff9a"/><path d="M193.4322,181.71815c-0.91775,-0.88903 -1.27375,-1.9611 -1.71395,-2.9792c-0.29175,-0.67475 -0.52305,-1.37468 -0.5039,-2.07277c2.42172,1.77838 5.79987,2.74984 7.916,2.20264c2.05792,-0.53215 4.12468,-2.25182 6.29548,-1.80564c3.05542,0.62798 5.33682,2.81726 8.70451,2.60815c0.98618,-0.06123 2.23597,-2.05197 2.80434,-1.11218c0.72552,1.19962 1.72412,2.67491 2.98451,2.70285c2.96904,0.06582 6.48938,-2.26746 9.32147,-1.65177c1.7491,0.38025 3.29736,0.65067 5.13321,0.39456c2.28856,-0.31927 3.9001,-1.59037 6.44175,-1.5251c1.42462,0.03659 2.88903,0.97404 4.34922,0.99101c2.32727,0.02703 4.81455,-1.02177 6.98209,-0.03543c3.18663,1.4501 6.44687,2.96817 9.91446,2.8442c2.1118,-0.07549 11.57513,-4.66744 14.08893,-5.52645c3.80015,-1.29859 8.04791,-1.14262 12.12041,-1.86567c0.18914,0.71692 0.32847,1.37955 0.4658,1.88509c0.02544,0.99474 0.93638,2.14221 0.07632,2.98422c-0.8705,0.85223 -2.86775,1.00425 -4.43722,1.28516c-3.69021,0.66051 -6.4277,-0.00877 -9.94154,1.38265c-4.77945,1.89257 -5.67818,7.72872 -12.10125,7.52867c-2.99107,-0.09315 -6.76761,-2.19353 -9.73895,-2.75648c-6.93042,-1.31304 -14.90394,-1.40108 -22.04671,-0.76237c-3.39344,0.34184 -6.99765,0.56623 -10.37101,-0.05454c-2.96762,-0.5461 -4.73732,-1.28884 -7.90058,-1.55988l-0.44885,-0.06716c-6.8584,0.12231 -14.91478,0.33631 -18.39456,-3.03457z" data-paper-data="{&quot;index&quot;:null}" fill="#acffb9"/></g></g></g></svg>