<svg version="1.1" xmlns="http://www.w3.org/2000/svg" xmlns:xlink="http://www.w3.org/1999/xlink" width="55.39724" height="75.39898" viewBox="0,0,55.39724,75.39898"><g transform="translate(-212.30138,-142.30051)"><g data-paper-data="{&quot;isPaintingLayer&quot;:true}" fill-rule="nonzero" stroke-linejoin="miter" stroke-miterlimit="10" stroke-dasharray="" stroke-dashoffset="0" style="mix-blend-mode: normal"><path d="M217.594,144.5533l48.60462,-0.75279" data-paper-data="{&quot;index&quot;:null}" fill="none" stroke="#6e6e6e" stroke-width="3" stroke-linecap="round"/><path d="M218.46986,159.75979l45.88549,-0.71067" data-paper-data="{&quot;index&quot;:null}" fill="none" stroke="#6e6e6e" stroke-width="3" stroke-linecap="round"/><path d="M260.02675,193.42619l-46.22537,0.71592" data-paper-data="{&quot;index&quot;:null}" fill="none" stroke="#6e6e6e" stroke-width="3" stroke-linecap="round"/><path d="M261.16521,205.15918l-42.48656,0.65804" data-paper-data="{&quot;index&quot;:null}" fill="none" stroke="#6e6e6e" stroke-width="3" stroke-linecap="round"/><path d="M257.41745,215.63096l-36.70839,0.56853" data-paper-data="{&quot;index&quot;:null}" fill="none" stroke="#6e6e6e" stroke-width="3" stroke-linecap="round"/><g stroke="none" stroke-width="0" stroke-linecap="butt"><path d="M261.33712,179.555c0,1.54629 -9.74174,2.79981 -21.75876,2.79981c-12.01702,0 -21.75875,-1.25352 -21.75875,-2.79981c0,-1.54629 9.74171,-2.79984 21.75875,-2.79984c12.01702,0 21.75876,1.25353 21.75876,2.79984z" fill="#b50ccc"/><path d="M217.77266,179.60675v-4.08433l43.57666,-0.05416l-0.02525,4.08345z" fill="#b50ccc"/><path d="M261.33712,175.51081c0,1.54629 -9.74173,2.79983 -21.75875,2.79983c-12.01702,0 -21.75875,-1.25353 -21.75875,-2.79983c0,-1.54629 9.74173,-2.79984 21.75875,-2.79984c12.01702,0 21.75875,1.25353 21.75875,2.79984z" fill="#e4dae5"/><path d="M252.74638,175.46936c0,0.64108 -6.2976,1.16077 -14.06606,1.16077c-7.76848,0 -14.06606,-0.51969 -14.06606,-1.16077c0,-0.64108 6.2976,-1.16077 14.06606,-1.16077c7.76848,0 14.06606,0.51969 14.06606,1.16077z" fill="#8b099d"/></g></g></g></svg>