<svg version="1.1" xmlns="http://www.w3.org/2000/svg" xmlns:xlink="http://www.w3.org/1999/xlink" width="96.1338" height="75.28607" viewBox="0,0,96.1338,75.28607"><g transform="translate(-191.86762,-142.87884)"><g data-paper-data="{&quot;isPaintingLayer&quot;:true}" fill-rule="nonzero" stroke-linejoin="miter" stroke-miterlimit="10" stroke-dasharray="" stroke-dashoffset="0" style="mix-blend-mode: normal"><path d="M197.57378,144.37884l88.92765,0.55104" fill="none" stroke="#6e6e6e" stroke-width="3" stroke-linecap="round"/><path d="M200.01605,159.63857l83.95269,0.52022" fill="none" stroke="#6e6e6e" stroke-width="3" stroke-linecap="round"/><path d="M193.36762,193.96274l84.57455,0.52407" fill="none" stroke="#6e6e6e" stroke-width="3" stroke-linecap="round"/><path d="M280.67346,206.27332l-77.73396,-0.48168" fill="none" stroke="#6e6e6e" stroke-width="3" stroke-linecap="round"/><path d="M274.39109,216.66491l-67.16215,-0.41617" fill="none" stroke="#6e6e6e" stroke-width="3" stroke-linecap="round"/><g stroke-linecap="butt"><g data-paper-data="{&quot;index&quot;:null}" fill="#d68014"><path d="M281.34313,172.76066c0,2.98291 -18.61007,5.40105 -41.56674,5.40105c-22.95668,0 -41.56673,-2.41814 -41.56673,-5.40105c0,-2.98291 18.61005,-5.40104 41.56672,-5.40104c22.95667,0 41.56673,2.41813 41.56673,5.40104z" stroke="none" stroke-width="0"/><path d="M281.31819,172.76704l0.04823,7.87723l-83.24645,-0.10448v-7.87894z" stroke="none" stroke-width="0"/><path d="M239.77638,185.96322c-22.95667,0 -41.56672,-2.41815 -41.56672,-5.40105c0,-2.98291 18.61005,-5.40105 41.56672,-5.40105c22.95667,0 41.56672,2.41815 41.56672,5.40105c0,2.98292 -18.61005,5.40105 -41.56672,5.40105z" stroke="#d68014" stroke-width="0.5"/></g><g data-paper-data="{&quot;index&quot;:null}" fill="#c07111" stroke="none" stroke-width="0"><path d="M281.3656,172.47504c0,2.76122 -18.61007,4.99964 -41.56674,4.99964c-22.95668,0 -41.56673,-2.23842 -41.56673,-4.99964c0,-2.76122 18.61005,-4.99963 41.56672,-4.99963c22.95667,0 41.56674,2.23841 41.56674,4.99963z"/></g></g></g></g></svg>