<svg version="1.1" xmlns="http://www.w3.org/2000/svg" xmlns:xlink="http://www.w3.org/1999/xlink" width="55.39724" height="75.39898" viewBox="0,0,55.39724,75.39898"><g transform="translate(-212.30138,-142.30051)"><g data-paper-data="{&quot;isPaintingLayer&quot;:true}" fill-rule="nonzero" stroke-linejoin="miter" stroke-miterlimit="10" stroke-dasharray="" stroke-dashoffset="0" style="mix-blend-mode: normal"><path d="M217.594,144.5533l48.60462,-0.75279" data-paper-data="{&quot;index&quot;:null}" fill="none" stroke="#6e6e6e" stroke-width="3" stroke-linecap="round"/><path d="M218.46986,159.75979l45.88549,-0.71067" data-paper-data="{&quot;index&quot;:null}" fill="none" stroke="#6e6e6e" stroke-width="3" stroke-linecap="round"/><path d="M260.02675,193.42619l-46.22537,0.71592" data-paper-data="{&quot;index&quot;:null}" fill="none" stroke="#6e6e6e" stroke-width="3" stroke-linecap="round"/><path d="M218.67865,205.81722l42.48656,-0.65804" data-paper-data="{&quot;index&quot;:null}" fill="none" stroke="#6e6e6e" stroke-width="3" stroke-linecap="round"/><path d="M220.70906,216.19949l36.70839,-0.56853" data-paper-data="{&quot;index&quot;:null}" fill="none" stroke="#6e6e6e" stroke-width="3" stroke-linecap="round"/><path d="M263.98271,180.24897c0,1.77798 -10.61993,3.2193 -23.72027,3.2193c-13.10034,0 -23.72027,-1.44134 -23.72027,-3.2193c0,-1.77798 10.61993,-3.21932 23.72027,-3.21932c13.10034,0 23.72027,1.44136 23.72027,3.21934z" fill="#ff4444" stroke="none" stroke-width="0" stroke-linecap="butt"/><path d="M216.49099,180.30847v-4.69628l47.50502,-0.06228l-0.02752,4.69526z" fill="#ff4444" stroke="none" stroke-width="0" stroke-linecap="butt"/><path d="M263.98271,175.59883c0,1.77798 -10.61993,3.21932 -23.72027,3.21932c-13.10034,0 -23.72027,-1.44134 -23.72027,-3.21932c0,-1.77798 10.61993,-3.21932 23.72027,-3.21932c13.10034,0 23.72027,1.44136 23.72027,3.21934z" fill="#da3030" stroke="none" stroke-width="0" stroke-linecap="butt"/></g></g></svg>