<svg version="1.1" xmlns="http://www.w3.org/2000/svg" xmlns:xlink="http://www.w3.org/1999/xlink" width="96.13382" height="75.28607" viewBox="0,0,96.13382,75.28607"><g transform="translate(-191.86762,-142.87884)"><g data-paper-data="{&quot;isPaintingLayer&quot;:true}" fill-rule="nonzero" stroke-linejoin="miter" stroke-miterlimit="10" stroke-dasharray="" stroke-dashoffset="0" style="mix-blend-mode: normal"><path d="M286.50145,144.92988l-88.92765,-0.55104" fill="none" stroke="#6e6e6e" stroke-width="3" stroke-linecap="round"/><path d="M200.01607,159.63857l83.95269,0.52022" fill="none" stroke="#6e6e6e" stroke-width="3" stroke-linecap="round"/><path d="M193.36762,193.96274l84.57455,0.52407" fill="none" stroke="#6e6e6e" stroke-width="3" stroke-linecap="round"/><path d="M280.67346,206.27332l-77.73396,-0.48168" fill="none" stroke="#6e6e6e" stroke-width="3" stroke-linecap="round"/><path d="M274.39111,216.66491l-67.16215,-0.41617" fill="none" stroke="#6e6e6e" stroke-width="3" stroke-linecap="round"/><g stroke="none" stroke-width="0" stroke-linecap="butt"><path d="M282.4502,185.26815c0,3.04389 -18.99044,5.51144 -42.41634,5.51144c-23.4259,0 -42.41634,-2.46755 -42.41634,-5.51144c0,-3.04389 18.99044,-5.51145 42.41635,-5.51145c23.4259,0 42.41634,2.46756 42.41634,5.51145z" fill="#ea9d17"/><path d="M197.526,185.37v-8.03997l84.948,-0.10661l-0.04921,8.03824z" fill="#ea9d17"/><path d="M282.4502,177.30718c0,3.04388 -18.99044,5.51145 -42.41634,5.51145c-23.4259,0 -42.41634,-2.46756 -42.41634,-5.51145c0,-3.04388 18.48385,-14.2503 41.90975,-14.2503c23.4259,0 42.92295,11.2064 42.92295,14.2503z" fill="#ffab19"/><path d="M210.05914,173.8501c-0.39677,0.87119 -1.50998,1.27936 -2.13839,0.99316c-0.62839,-0.2862 -1.0466,-1.26694 -0.64982,-2.13813c0.39677,-0.87119 1.91042,-2.15858 2.53882,-1.87238c0.62839,0.2862 0.64616,2.14616 0.24939,3.01735z" fill="#ffffff"/><path d="M218.69194,173.49074c-0.39677,0.87119 -1.50999,1.27936 -2.13839,0.99316c-0.62839,-0.2862 -1.0466,-1.26694 -0.64983,-2.13813c0.39678,-0.87119 1.91042,-2.15858 2.53883,-1.87238c0.6284,0.2862 0.64617,2.14616 0.24939,3.01735z" fill="#ffffff"/><path d="M261.77269,170.87393c0.65319,-0.2862 2.22657,1.00119 2.639,1.87238c0.41243,0.87119 -0.02227,1.85193 -0.67547,2.13813c-0.65319,0.2862 -1.81033,-0.12197 -2.22277,-0.99316c-0.41243,-0.87119 -0.39396,-2.73115 0.25923,-3.01735z" data-paper-data="{&quot;index&quot;:null}" fill="#ffffff"/><path d="M226.08272,171.40875c-0.6284,0.2862 -2.14205,-1.00119 -2.53883,-1.87238c-0.39678,-0.87119 0.02142,-1.85193 0.64982,-2.13813c0.62839,-0.2862 1.74162,0.12197 2.13839,0.99316c0.39678,0.87119 0.37902,2.73115 -0.24939,3.01735z" data-paper-data="{&quot;index&quot;:null}" fill="#ffffff"/><path d="M240.91746,168.9931c-0.39678,0.87119 -1.50999,1.27936 -2.13839,0.99316c-0.6284,-0.2862 -1.0466,-1.26694 -0.64982,-2.13813c0.39677,-0.87119 1.91042,-2.15858 2.53882,-1.87238c0.6284,0.2862 0.64617,2.14616 0.24939,3.01735z" fill="#ffffff"/><path d="M230.15158,165.23644c0.6284,-0.2862 2.14205,1.00119 2.53883,1.87238c0.39677,0.87119 -0.02142,1.85193 -0.64983,2.13813c-0.62839,0.2862 -1.74162,-0.12197 -2.13839,-0.99316c-0.39678,-0.87119 -0.37902,-2.73115 0.24939,-3.01735z" data-paper-data="{&quot;index&quot;:null}" fill="#ffffff"/><path d="M249.95469,174.76341c-0.62839,0.2862 -2.14205,-1.00119 -2.53882,-1.87238c-0.39678,-0.87119 0.02142,-1.85193 0.64982,-2.13813c0.6284,-0.2862 1.74162,0.12197 2.13839,0.99316c0.39677,0.87119 0.37901,2.73115 -0.24939,3.01735z" data-paper-data="{&quot;index&quot;:null}" fill="#ffffff"/><path d="M228.16636,172.62331c0.6284,-0.2862 2.14205,1.00119 2.53883,1.87238c0.39677,0.87119 -0.02142,1.85193 -0.64983,2.13813c-0.62839,0.2862 -1.74162,-0.12197 -2.13839,-0.99316c-0.39678,-0.87119 -0.37902,-2.73115 0.24939,-3.01735z" data-paper-data="{&quot;index&quot;:null}" fill="#ffffff"/><path d="M240.37046,177.08428c-0.62839,0.2862 -2.14205,-1.00119 -2.53883,-1.87238c-0.39677,-0.87119 0.02142,-1.85193 0.64982,-2.13813c0.6284,-0.2862 1.74162,0.12197 2.13839,0.99316c0.39677,0.87119 0.37901,2.73115 -0.24939,3.01735z" data-paper-data="{&quot;index&quot;:null}" fill="#ffffff"/><path d="M244.92534,165.19213c0.62839,-0.2862 2.14205,1.00119 2.53882,1.87238c0.39678,0.87119 -0.02142,1.85193 -0.64983,2.13813c-0.62839,0.2862 -1.74161,-0.12197 -2.13839,-0.99316c-0.39678,-0.87119 -0.37901,-2.73115 0.24939,-3.01735z" data-paper-data="{&quot;index&quot;:null}" fill="#ffffff"/><path d="M253.70989,169.3998c-0.6284,0.2862 -2.14205,-1.00119 -2.53883,-1.87238c-0.39677,-0.87119 0.02142,-1.85193 0.64983,-2.13813c0.62839,-0.2862 1.74162,0.12197 2.13839,0.99316c0.39678,0.87119 0.37902,2.73115 -0.24939,3.01735z" data-paper-data="{&quot;index&quot;:null}" fill="#ffffff"/><path d="M271.07763,174.83646c-0.39678,0.87119 -1.50999,1.27936 -2.13839,0.99316c-0.6284,-0.2862 -1.0466,-1.26694 -0.64982,-2.13813c0.39677,-0.87119 1.91042,-2.15858 2.53882,-1.87238c0.6284,0.2862 0.64617,2.14616 0.24939,3.01735z" fill="#ffffff"/><path d="M257.29335,178.02329c-0.39677,0.87119 -1.50999,1.27936 -2.13839,0.99316c-0.62839,-0.2862 -1.0466,-1.26694 -0.64983,-2.13813c0.39678,-0.87119 1.91042,-2.15858 2.53883,-1.87238c0.62839,0.2862 0.64616,2.14616 0.24939,3.01735z" fill="#ffffff"/><path d="M258.70709,171.71138c-0.39677,0.87119 -1.50999,1.27936 -2.13839,0.99316c-0.62839,-0.2862 -1.0466,-1.26694 -0.64982,-2.13813c0.39677,-0.87119 1.91042,-2.15858 2.53883,-1.87238c0.62839,0.2862 0.64616,2.14616 0.24939,3.01735z" data-paper-data="{&quot;index&quot;:null}" fill="#ffffff"/></g></g></g></svg>